<svg width="153" height="166" viewBox="0 0 153 166" fill="none" xmlns="http://www.w3.org/2000/svg">
<path d="M7.19733 152.61H11.5587V154.49H7.19733V159.432H5.19928V154.49H0.837952V152.61H5.19928V148.045H7.19733V152.61Z" fill="#E5E5E5"/>
<path d="M42.1973 117.61H46.5587V119.49H42.1973V124.432H40.1993V119.49H35.838V117.61H40.1993V113.045H42.1973V117.61Z" fill="#E5E5E5"/>
<path d="M77.1973 12.6104H81.5587V14.4902H77.1973V19.4316H75.1993V14.4902H70.838V12.6104H75.1993V8.04492H77.1973V12.6104Z" fill="#E5E5E5"/>
<path d="M77.1973 47.6104H81.5587V49.4902H77.1973V54.4316H75.1993V49.4902H70.838V47.6104H75.1993V43.0449H77.1973V47.6104Z" fill="#E5E5E5"/>
<path d="M77.1973 82.6104H81.5587V84.4902H77.1973V89.4316H75.1993V84.4902H70.838V82.6104H75.1993V78.0449H77.1973V82.6104Z" fill="#6246E5"/>
<path d="M77.1973 117.61H81.5587V119.49H77.1973V124.432H75.1993V119.49H70.838V117.61H75.1993V113.045H77.1973V117.61Z" fill="#E5E5E5"/>
<path d="M77.1973 152.61H81.5587V154.49H77.1973V159.432H75.1993V154.49H70.838V152.61H75.1993V148.045H77.1973V152.61Z" fill="#E5E5E5"/>
<path d="M112.197 12.6104H116.559V14.4902H112.197V19.4316H110.199V14.4902H105.838V12.6104H110.199V8.04492H112.197V12.6104Z" fill="#E5E5E5"/>
<path d="M112.197 47.6104H116.559V49.4902H112.197V54.4316H110.199V49.4902H105.838V47.6104H110.199V43.0449H112.197V47.6104Z" fill="#E5E5E5"/>
<path d="M112.197 82.6104H116.559V84.4902H112.197V89.4316H110.199V84.4902H105.838V82.6104H110.199V78.0449H112.197V82.6104Z" fill="#E5E5E5"/>
<path d="M112.197 117.61H116.559V119.49H112.197V124.432H110.199V119.49H105.838V117.61H110.199V113.045H112.197V117.61Z" fill="#E5E5E5"/>
<path d="M112.197 152.61H116.559V154.49H112.197V159.432H110.199V154.49H105.838V152.61H110.199V148.045H112.197V152.61Z" fill="#E5E5E5"/>
<path d="M147.197 12.6104H151.559V14.4902H147.197V19.4316H145.199V14.4902H140.838V12.6104H145.199V8.04492H147.197V12.6104Z" fill="#FF7152"/>
<path d="M147.197 47.6104H151.559V49.4902H147.197V54.4316H145.199V49.4902H140.838V47.6104H145.199V43.0449H147.197V47.6104Z" fill="#E5E5E5"/>
<path d="M147.197 82.6104H151.559V84.4902H147.197V89.4316H145.199V84.4902H140.838V82.6104H145.199V78.0449H147.197V82.6104Z" fill="#E5E5E5"/>
<path d="M147.197 117.61H151.559V119.49H147.197V124.432H145.199V119.49H140.838V117.61H145.199V113.045H147.197V117.61Z" fill="#E5E5E5"/>
<path d="M147.197 152.61H151.559V154.49H147.197V159.432H145.199V154.49H140.838V152.61H145.199V148.045H147.197V152.61Z" fill="#E5E5E5"/>
</svg>
