<svg width="370" height="284" viewBox="0 0 370 284" fill="none" xmlns="http://www.w3.org/2000/svg">
<path d="M127.673 368.92C60.0682 368.92 5.24158 312.647 5.24159 243.202C5.24159 173.758 60.0682 117.484 127.673 117.484C195.277 117.484 250.104 173.758 250.104 243.202C250.104 312.647 195.277 368.92 127.673 368.92Z" stroke="#6246E5"/>
<path d="M140.613 373.902C64.9684 373.902 3.62417 310.937 3.62417 233.237C3.62417 155.538 64.9685 92.5727 140.613 92.5727C216.257 92.5728 277.602 155.538 277.602 233.237C277.602 310.937 216.257 373.902 140.613 373.902Z" stroke="#6246E5"/>
<path d="M151.127 378.885C68.3356 378.885 1.1978 309.971 1.19781 224.934C1.19781 139.897 68.3356 70.9834 151.127 70.9834C233.918 70.9834 301.055 139.897 301.055 224.934C301.055 309.971 233.918 378.885 151.127 378.885Z" stroke="#6246E5"/>
<path d="M166.493 382.206C77.4491 382.206 5.24201 308.088 5.24201 216.63C5.24202 125.173 77.4491 51.0542 166.493 51.0542C255.538 51.0542 327.745 125.173 327.745 216.63C327.745 308.088 255.538 382.206 166.493 382.206Z" stroke="#6246E5"/>
<path d="M181.455 385.527C86.3809 385.527 9.2856 306.39 9.28561 208.741C9.28561 111.092 86.3809 31.9551 181.455 31.9551C276.53 31.9551 353.625 111.092 353.625 208.741C353.625 306.39 276.529 385.527 181.455 385.527Z" stroke="#6246E5"/>
<path d="M198.439 389.68C93.9848 389.68 9.2856 302.735 9.28561 195.456C9.28561 88.176 93.9849 1.23143 198.439 1.23144C302.893 1.23144 387.593 88.1761 387.593 195.456C387.593 302.735 302.893 389.68 198.439 389.68Z" stroke="#6246E5"/>
</svg>
