<svg width="198" height="274" viewBox="0 0 198 274" fill="none" xmlns="http://www.w3.org/2000/svg">
<path d="M263.158 178.32C263.158 229.033 223.064 270.123 173.631 270.123C124.199 270.123 84.1042 229.033 84.1042 178.32C84.1042 127.607 124.199 86.5166 173.631 86.5166C223.064 86.5166 263.158 127.607 263.158 178.32Z" stroke="#6246E5"/>
<path d="M266.712 168.604C266.712 225.354 221.844 271.338 166.524 271.338C111.203 271.338 66.3357 225.354 66.3357 168.604C66.3357 111.853 111.203 65.8696 166.524 65.8696C221.844 65.8696 266.712 111.853 266.712 168.604Z" stroke="#6246E5"/>
<path d="M270.266 160.709C270.266 222.826 221.155 273.16 160.601 273.16C100.047 273.16 50.9365 222.826 50.9365 160.709C50.9365 98.5931 100.047 48.2593 160.601 48.2593C221.155 48.2593 270.266 98.5931 270.266 160.709Z" stroke="#6246E5"/>
<path d="M272.635 149.171C272.635 215.983 219.812 270.123 154.678 270.123C89.5445 270.123 36.7219 215.983 36.7219 149.171C36.7219 82.3598 89.5445 28.2197 154.678 28.2197C219.812 28.2197 272.635 82.3598 272.635 149.171Z" stroke="#6246E5"/>
<path d="M275.004 137.937C275.004 209.277 218.601 267.087 149.052 267.087C79.5017 267.087 23.0992 209.277 23.0992 137.937C23.0992 66.5981 79.5017 8.7876 149.052 8.7876C218.601 8.7876 275.004 66.5981 275.004 137.937Z" stroke="#6246E5"/>
<path d="M277.965 125.185C277.965 203.567 215.994 267.087 139.575 267.087C63.1561 267.087 1.18494 203.567 1.18494 125.185C1.18494 46.8026 63.1561 -16.7173 139.575 -16.7173C215.994 -16.7173 277.965 46.8026 277.965 125.185Z" stroke="#6246E5"/>
</svg>
